# xmcd
#
# Track frame offsets: 
#        150
#        15202
#        30347
#        46940
#        65060
#        80485
#        98287
#        113749
#        131972
#        148187
#        162850
#        179473
#
# Disc length: 2583 seconds
#
# Revision: 2
# Processed by: cddbd v1.5.2PL0 Copyright (c) Steve Scherf et al.
# Submitted via: ExactAudioCopyFreeDBPlugin 1.0
#
DISCID=940a150c
DTITLE=SHeDAISY - The Best of SHeDAISY
DYEAR=2008
DGENRE=Country
TTITLE0=Little Goodbyes
TTITLE1=This Woman Needs
TTITLE2=I Will... But
TTITLE3=Lucky 4 You (Tonight I'm Just Me)
TTITLE4=Get Over Yourself
TTITLE5=Mine All Mine
TTITLE6=Passenger Seat
TTITLE7=Come Home Soon
TTITLE8=Don't Worry 'Bout a Thing
TTITLE9=I'm Taking the Wheel
TTITLE10=In Terms of Love
TTITLE11=God Bless the American Housewife
EXTD=
EXTT0=
EXTT1=
EXTT2=
EXTT3=
EXTT4=
EXTT5=
EXTT6=
EXTT7=
EXTT8=
EXTT9=
EXTT10=
EXTT11=
PLAYORDER=
